<svg width="23" height="26" viewBox="0 0 23 26" fill="none" xmlns="http://www.w3.org/2000/svg">
    <path d="M9.08333 23.375H13.9167C13.9167 24.7042 12.8292 25.7917 11.5 25.7917C10.1708 25.7917 9.08333 24.7042 9.08333 23.375ZM22.375 20.9584V22.1667H0.625V20.9584L3.04167 18.5417V11.2917C3.04167 7.54585 5.45833 4.28335 9.08333 3.19585V2.83335C9.08333 1.50419 10.1708 0.416687 11.5 0.416687C12.8292 0.416687 13.9167 1.50419 13.9167 2.83335V3.19585C17.5417 4.28335 19.9583 7.54585 19.9583 11.2917V18.5417L22.375 20.9584ZM17.5417 11.2917C17.5417 7.90835 14.8833 5.25002 11.5 5.25002C8.11667 5.25002 5.45833 7.90835 5.45833 11.2917V19.75H17.5417V11.2917Z" fill="white" />
</svg>
