<svg width="21" height="21" viewBox="0 0 21 21" fill="none" xmlns="http://www.w3.org/2000/svg">
<g clip-path="url(#clip0_405_14663)">
<path d="M14 3.5H15.75C16.2141 3.5 16.6592 3.68437 16.9874 4.01256C17.3156 4.34075 17.5 4.78587 17.5 5.25V17.5C17.5 17.9641 17.3156 18.4092 16.9874 18.7374C16.6592 19.0656 16.2141 19.25 15.75 19.25H5.25C4.78587 19.25 4.34075 19.0656 4.01256 18.7374C3.68437 18.4092 3.5 17.9641 3.5 17.5V5.25C3.5 4.78587 3.68437 4.34075 4.01256 4.01256C4.34075 3.68437 4.78587 3.5 5.25 3.5H7M7.875 1.75H13.125C13.6082 1.75 14 2.14175 14 2.625V4.375C14 4.85825 13.6082 5.25 13.125 5.25H7.875C7.39175 5.25 7 4.85825 7 4.375V2.625C7 2.14175 7.39175 1.75 7.875 1.75Z" stroke="#999999" stroke-width="1.8" stroke-linecap="round" stroke-linejoin="round"/>
</g>
<defs>
<clipPath id="clip0_405_14663">
<rect width="21" height="21" rx="3" fill="white"/>
</clipPath>
</defs>
</svg>
