<svg width="8" height="6" viewBox="0 0 8 6" fill="none" xmlns="http://www.w3.org/2000/svg" stroke-width="0" stroke="white">
  <path fill-rule="evenodd" clip-rule="evenodd" d="M1.57779 5.42738C0.771944 5.42738 0.117676 4.78415 0.117676 3.99193C0.117676 3.3337 0.56912 2.77857 1.18414 2.60941C1.36556 1.43272 2.39957 0.529419 3.64682 0.529419C4.62821 0.529419 5.47791 1.08874 5.88361 1.90042C5.89432 1.9001 5.90502 1.9001 5.91574 1.9001C6.90593 1.9001 7.70951 2.69043 7.70951 3.66358C7.70951 4.63705 6.90561 5.42706 5.91574 5.42706H1.57752L1.57779 5.42738ZM1.57779 5.10832H5.91601C6.72705 5.10832 7.38526 4.46094 7.38526 3.66388C7.38526 2.86655 6.72676 2.21945 5.91601 2.21945C5.87544 2.21945 5.83552 2.22105 5.7956 2.22424C5.72647 2.22966 5.66156 2.19137 5.63366 2.12915C5.2997 1.37616 4.53537 0.849058 3.64679 0.849058C2.52774 0.849058 1.60542 1.68497 1.4921 2.75613C1.48463 2.826 1.43173 2.8828 1.36163 2.8962C0.838137 2.99542 0.442226 3.44881 0.442226 3.99251C0.442226 4.60862 0.951114 5.10891 1.57781 5.10891L1.57779 5.10832ZM2.4132 3.01338C2.50602 2.27985 3.1431 1.71156 3.91386 1.71156C4.21114 1.71156 4.48863 1.79612 4.72263 1.94224C4.79825 1.98946 4.82064 2.08806 4.77261 2.1624C4.72457 2.23674 4.62428 2.25875 4.54867 2.21153C4.36498 2.09699 4.14721 2.03063 3.91354 2.03063C3.35597 2.03063 2.88795 2.40903 2.76008 2.91825L2.85388 2.89272C2.88082 2.88538 2.91002 2.89208 2.9308 2.91091C2.95157 2.92973 2.96065 2.95749 2.95546 2.98461L2.8039 3.75164C2.79806 3.78131 2.77566 3.80524 2.74613 3.81322C2.7166 3.82119 2.68479 3.81226 2.66435 3.78993L2.13111 3.2105C2.11229 3.19008 2.10547 3.16137 2.11326 3.13488C2.12105 3.1084 2.14247 3.08766 2.16941 3.08032L2.41314 3.01364L2.4132 3.01338ZM5.06731 3.47858L4.97351 3.5041C4.94658 3.51144 4.91737 3.50474 4.8966 3.48591C4.87583 3.46709 4.86674 3.43933 4.87193 3.41221L5.02349 2.64518C5.02933 2.61551 5.05173 2.59158 5.08126 2.5836C5.1108 2.57563 5.1426 2.58456 5.16305 2.6069L5.69628 3.18632C5.7151 3.20674 5.72192 3.23546 5.71413 3.26194C5.70634 3.28842 5.68492 3.30916 5.65798 3.3165L5.41425 3.38318C5.32143 4.11671 4.68434 4.685 3.91359 4.685C3.61631 4.685 3.33882 4.60045 3.10482 4.45432C3.0292 4.4071 3.0068 4.30851 3.05484 4.23417C3.10287 4.15983 3.20316 4.13781 3.27877 4.18503C3.46246 4.29957 3.68023 4.36594 3.91391 4.36594C4.47147 4.36594 4.93949 3.98753 5.06736 3.47832L5.06731 3.47858Z" fill="white"/>
</svg>
