<svg width="22" height="22" viewBox="0 0 22 22" fill="none" xmlns="http://www.w3.org/2000/svg">
<path d="M11.0002 8.25043V11.9171M11.0002 15.5838H11.0094M9.4327 3.53877L1.66854 16.5004C1.50846 16.7777 1.42376 17.092 1.42286 17.4121C1.42196 17.7322 1.5049 18.047 1.66343 18.3251C1.82195 18.6032 2.05053 18.8349 2.32643 18.9973C2.60233 19.1596 2.91593 19.2469 3.23604 19.2504H18.7644C19.0845 19.2469 19.3981 19.1596 19.674 18.9973C19.9499 18.8349 20.1785 18.6032 20.337 18.3251C20.4955 18.047 20.5784 17.7322 20.5775 17.4121C20.5766 17.092 20.4919 16.7777 20.3319 16.5004L12.5677 3.53877C12.4043 3.26936 12.1742 3.04662 11.8996 2.89204C11.6251 2.73746 11.3153 2.65625 11.0002 2.65625C10.6851 2.65625 10.3753 2.73746 10.1008 2.89204C9.82621 3.04662 9.59612 3.26936 9.4327 3.53877Z" stroke="#e99518" stroke-width="1.8" stroke-linecap="round" stroke-linejoin="round"/>
</svg>
