<svg width="21" height="21" viewBox="0 0 21 21" fill="none" xmlns="http://www.w3.org/2000/svg">
<g clip-path="url(#clip0_405_14652)">
<path d="M18.375 4.375C18.375 5.82475 14.8492 7 10.5 7C6.15076 7 2.625 5.82475 2.625 4.375M18.375 4.375C18.375 2.92525 14.8492 1.75 10.5 1.75C6.15076 1.75 2.625 2.92525 2.625 4.375M18.375 4.375V16.625C18.375 18.0775 14.875 19.25 10.5 19.25C6.125 19.25 2.625 18.0775 2.625 16.625V4.375M18.375 10.5C18.375 11.9525 14.875 13.125 10.5 13.125C6.125 13.125 2.625 11.9525 2.625 10.5" stroke="#999999" stroke-width="1.8" stroke-linecap="round" stroke-linejoin="round"/>
</g>
<defs>
<clipPath id="clip0_405_14652">
<rect width="21" height="21" rx="3" fill="white"/>
</clipPath>
</defs>
</svg>
