<svg width="14" height="12" viewBox="0 0 14 12" xmlns="http://www.w3.org/2000/svg" fill="#000">
    <path d="M8.78 3.15c.155.165.293.36.415.583.121.224.216.457.284.7 0 .23-.078.423-.233.58a.786.786 0 0 1-.584.237.793.793 0 0 1-.576-.236.782.782 0 0 1-.24-.58.41.41 0 0 0-.015-.19.396.396 0 0 0-.105-.16.748.748 0 0 0-.16-.095.34.34 0 0 0-.187-.022.757.757 0 0 1-.554-.234.757.757 0 0 1-.233-.554c0-.214.077-.398.233-.554a.757.757 0 0 1 .554-.233c.263.058.51.15.744.277.233.126.452.287.656.481zM6.824 1.867c-.086 0-.171.005-.254.014-.084.01-.169.015-.256.015a1.111 1.111 0 0 1-.686-.168.93.93 0 0 1-.423-.561.821.821 0 0 1 .102-.657.711.711 0 0 1 .54-.35 5.15 5.15 0 0 1 .488-.047c.16-.007.324-.01.489-.01 1.439 0 2.761.383 3.967 1.151a7.361 7.361 0 0 1 2.741 3.121 1.582 1.582 0 0 1 .175.728c0 .127-.009.257-.028.39a1.108 1.108 0 0 1-.117.37 7.715 7.715 0 0 1-1.255 1.808.699.699 0 0 1-.605.248.884.884 0 0 1-.817-.948c.015-.243.1-.457.256-.642.165-.194.316-.391.452-.59.136-.2.262-.411.379-.635a6.3 6.3 0 0 0-2.138-2.347 5.383 5.383 0 0 0-3.01-.89zm0 8.24a7.078 7.078 0 0 1-3.881-1.124A7.602 7.602 0 0 1 .219 5.98a2.232 2.232 0 0 1-.16-.422A1.742 1.742 0 0 1 0 5.105c0-.156.015-.31.044-.46.029-.15.078-.3.146-.445a6.9 6.9 0 0 1 .603-.99c.227-.311.478-.608.753-.891L.525 1.283A.705.705 0 0 1 .306.76C.306.555.38.374.525.22A.724.724 0 0 1 1.057 0c.21 0 .387.073.533.219l10.193 10.194a.7.7 0 0 1 .212.532.727.727 0 0 1-.212.518.765.765 0 0 1-.54.218.716.716 0 0 1-.524-.218L8.983 9.755c-.34.127-.692.217-1.057.27-.365.054-.732.08-1.101.08zm-4.01-6.578a7.544 7.544 0 0 0-1.123 1.575A5.771 5.771 0 0 0 3.8 7.466a5.519 5.519 0 0 0 3.381.861c.122-.01.24-.024.358-.044l-.409-.452a2.49 2.49 0 0 1-.16.022 2.66 2.66 0 0 1-2.1-.795 2.66 2.66 0 0 1-.802-1.954c0-.048-.003-.097-.008-.146a.61.61 0 0 1 .008-.16L2.815 3.529z" fill-rule="nonzero"/>
</svg>
