<svg width="21" height="29" viewBox="0 0 21 29" xmlns="http://www.w3.org/2000/svg" fill="#ffffff">
<path fill-rule="evenodd" clip-rule="evenodd" d="M2.65556 11.1031H3.10531V6.76541C3.10531 3.04683 6.32977 0 10.2628 0C14.1997 0 17.4178 3.0438 17.4178 6.76541V11.1031H17.8682C19.3289 11.1031 20.5231 12.2321 20.5231 13.6132V26.4898C20.5231 27.8709 19.3289 29 17.8682 29H2.65492C1.1942 29 0 27.8709 0 26.4898V13.6132C0 12.2321 1.1942 11.1031 2.65492 11.1031H2.65556ZM5.2746 11.1031H15.2485V6.76541C15.2485 4.17107 13.0061 2.05101 10.2628 2.05101C7.51629 2.05101 5.2746 4.16804 5.2746 6.76541V11.1031ZM10.2615 16.6825C11.2571 16.6825 12.0637 17.4451 12.0637 18.3864C12.0637 19.0357 11.68 19.6003 11.1143 19.888L11.6178 23.42H8.90589L9.40945 19.8886C8.84375 19.6015 8.45935 19.0363 8.45935 18.3864C8.45935 17.4451 9.26594 16.6825 10.2615 16.6825Z"/>
</svg>
