<svg width="19" height="21" viewBox="0 0 19 21" fill="none" xmlns="http://www.w3.org/2000/svg">
<g clip-path="url(#clip0_404_16577)">
<path d="M11.1339 19.0532C10.9678 19.3412 10.7295 19.5802 10.4428 19.7464C10.156 19.9125 9.83091 20 9.5 20C9.16909 20 8.84398 19.9125 8.55723 19.7464C8.27048 19.5802 8.03215 19.3412 7.86611 19.0532M15.1667 6.70101C15.1667 5.18901 14.5696 3.73893 13.5069 2.66979C12.4442 1.60064 11.0029 1 9.5 1C7.99711 1 6.55577 1.60064 5.49306 2.66979C4.43036 3.73893 3.83333 5.18901 3.83333 6.70101C3.83333 13.3522 1 15.2525 1 15.2525H18C18 15.2525 15.1667 13.3522 15.1667 6.70101Z" stroke="#999999" stroke-width="1.8" stroke-linecap="round" stroke-linejoin="round"/>
</g>
<defs>
<clipPath id="clip0_404_16577">
<rect width="19" height="21" rx="3" fill="white"/>
</clipPath>
</defs>
</svg>
