<svg width="18" height="19" viewBox="0 0 18 19" fill="none" xmlns="http://www.w3.org/2000/svg">
<g clip-path="url(#clip0_249_6053)">
<path d="M9.95505 1.25213L1.61203 9.40302C-0.582021 11.5468 -0.529724 15.1108 1.72798 17.3168C3.98681 19.5241 7.63835 19.5708 9.86409 17.3959L17.8218 9.62224C18.0594 9.39072 18.0594 9.01339 17.8218 8.78076C17.5854 8.54813 17.2 8.54813 16.9624 8.78076L9.00467 16.5544C7.25286 18.2663 4.39051 18.2385 2.58618 16.4754C0.781838 14.7122 0.758206 11.9162 2.47022 10.2444L10.8132 2.09355C12.0376 0.896999 13.9656 0.87919 15.1457 2.03233C16.3257 3.18548 16.3166 5.06872 15.0923 6.2652L6.73207 14.434C6.32624 14.8314 5.56117 14.8203 5.01324 14.2849C4.4653 13.7495 4.44938 13.0049 4.85181 12.6108L12.7286 4.91614C12.9662 4.68462 12.9662 4.3073 12.7286 4.07467C12.4922 3.84204 12.1068 3.84204 11.8692 4.07467L3.99239 11.7694C3.06362 12.6765 3.19321 14.1881 4.15382 15.1263C5.11329 16.0646 6.65251 16.1837 7.58235 15.2755L15.9425 7.10662C17.6205 5.46707 17.6603 2.80792 16.0051 1.19057C14.3522 -0.424508 11.6339 -0.38889 9.95385 1.25179L9.95505 1.25213Z" fill="#C4C4C4"/>
</g>
<defs>
<clipPath id="clip0_249_6053">
<rect width="18" height="19" fill="white"/>
</clipPath>
</defs>
</svg>
