<svg width="20" height="20" viewBox="0 0 20 20" fill="none" xmlns="http://www.w3.org/2000/svg">
<path fill-rule="evenodd" clip-rule="evenodd" d="M11.5139 3.5C11.9874 3.5 12.4202 3.7675 12.632 4.19098L13.5792 6.08541C13.7062 6.3395 13.9659 6.5 14.25 6.5H16.75C17.4404 6.5 18 7.05964 18 7.75V16.75C18 17.4404 17.4404 18 16.75 18H2.75C2.0596 18 1.5 17.4404 1.5 16.75V7.25C1.5 6.83579 1.1642 6.5 0.75 6.5C0.3358 6.5 0 6.83579 0 7.25V16.75C0 18.2688 1.2312 19.5 2.75 19.5H16.75C18.2688 19.5 19.5 18.2688 19.5 16.75V7.75C19.5 6.23122 18.2688 5 16.75 5H14.7135L13.9736 3.52016C13.5078 2.58851 12.5555 2 11.5139 2H8.25C7.8358 2 7.5 2.33579 7.5 2.75C7.5 3.16421 7.8358 3.5 8.25 3.5H11.5139Z" fill="black"/>
<path fill-rule="evenodd" clip-rule="evenodd" d="M9.75 8.5C11.5449 8.5 13 9.9551 13 11.75C13 13.5449 11.5449 15 9.75 15C7.9551 15 6.5 13.5449 6.5 11.75C6.5 9.9551 7.9551 8.5 9.75 8.5ZM14.5 11.75C14.5 9.1266 12.3733 7 9.75 7C7.1266 7 5 9.1266 5 11.75C5 14.3734 7.1266 16.5 9.75 16.5C12.3733 16.5 14.5 14.3734 14.5 11.75Z" fill="black"/>
<path fill-rule="evenodd" clip-rule="evenodd" d="M5.5 2.75C5.5 2.33579 5.1642 2 4.75 2H0.75C0.3358 2 0 2.33579 0 2.75C0 3.16421 0.3358 3.5 0.75 3.5H4.75C5.1642 3.5 5.5 3.16421 5.5 2.75Z" fill="black"/>
<path fill-rule="evenodd" clip-rule="evenodd" d="M2.75 5.5C3.1642 5.5 3.5 5.16421 3.5 4.75V0.75C3.5 0.33579 3.1642 0 2.75 0C2.3358 0 2 0.33579 2 0.75V4.75C2 5.16421 2.3358 5.5 2.75 5.5Z" fill="black"/>
</svg>
