<svg width="39" height="39" viewBox="0 0 39 39" fill="none" xmlns="http://www.w3.org/2000/svg">
<path d="M22.4575 35.75H16.5425C16.1719 35.7501 15.8124 35.6234 15.5236 35.3911C15.2349 35.1588 15.0342 34.8348 14.9549 34.4728L14.2935 31.4112C13.4112 31.0247 12.5746 30.5412 11.7991 29.9699L8.81399 30.9205C8.46066 31.0332 8.07941 31.0216 7.73356 30.8877C7.38772 30.7538 7.09808 30.5056 6.91274 30.1844L3.94875 25.064C3.76536 24.7425 3.69652 24.3682 3.75349 24.0025C3.81046 23.6367 3.98987 23.3011 4.26237 23.0506L6.57799 20.9381C6.47269 19.9812 6.47269 19.0156 6.57799 18.0586L4.26237 15.951C3.98949 15.7004 3.80983 15.3645 3.75285 14.9984C3.69587 14.6323 3.76494 14.2577 3.94875 13.936L6.90624 8.81237C7.09158 8.49114 7.38122 8.24296 7.72707 8.10906C8.07291 7.97515 8.45416 7.96357 8.80749 8.07625L11.7926 9.02687C12.1891 8.73437 12.6019 8.46137 13.0276 8.21437C13.4387 7.98362 13.8612 7.774 14.2935 7.58713L14.9565 4.52887C15.0354 4.16682 15.2357 3.84262 15.5242 3.61002C15.8126 3.37742 16.1719 3.25039 16.5425 3.25H22.4575C22.828 3.25039 23.1873 3.37742 23.4758 3.61002C23.7643 3.84262 23.9646 4.16682 24.0435 4.52887L24.713 7.58875C25.168 7.79025 25.6132 8.01612 26.0439 8.268C26.4452 8.50037 26.8336 8.7555 27.2074 9.03013L30.1941 8.0795C30.5472 7.96724 30.9281 7.97903 31.2736 8.11291C31.6191 8.2468 31.9085 8.49473 32.0937 8.81563L35.0512 13.9392C35.4282 14.6006 35.2982 15.4375 34.7376 15.9526L32.422 18.0651C32.5273 19.0221 32.5273 19.9877 32.422 20.9446L34.7376 23.0571C35.2982 23.5739 35.4282 24.4091 35.0512 25.0705L32.0937 30.1941C31.9084 30.5154 31.6188 30.7635 31.2729 30.8974C30.9271 31.0314 30.5458 31.0429 30.1925 30.9303L27.2074 29.9796C26.4325 30.5506 25.5964 31.0335 24.7146 31.4194L24.0435 34.4728C23.9642 34.8345 23.7638 35.1583 23.4754 35.3906C23.1869 35.6229 22.8278 35.7497 22.4575 35.75ZM19.4935 13C17.7696 13 16.1163 13.6848 14.8973 14.9038C13.6783 16.1228 12.9935 17.7761 12.9935 19.5C12.9935 21.2239 13.6783 22.8772 14.8973 24.0962C16.1163 25.3152 17.7696 26 19.4935 26C21.2174 26 22.8707 25.3152 24.0897 24.0962C25.3087 22.8772 25.9935 21.2239 25.9935 19.5C25.9935 17.7761 25.3087 16.1228 24.0897 14.9038C22.8707 13.6848 21.2174 13 19.4935 13Z" fill="white" />
</svg>
