<!-- icon666.com - MILLIONS vector ICONS FREE --><svg viewBox="0 -54 488.2112 488" xmlns="http://www.w3.org/2000/svg" fill="white"><path d="m4 241.785156h17.320312c2.207032 0 4-1.792968 4-4 0-2.210937-1.792968-4-4-4h-17.320312c-2.210938 0-4 1.789063-4 4 0 2.207032 1.789062 4 4 4zm0 0"></path><path d="m200 123.304688c-3.179688-3.09375-7.886719-4.019532-12-2.359376-17.28125 6.636719-42.640625 13.359376-60.28125 13.359376s-58.640625 26.640624-81.917969 58.160156c-40.359375-1.960938-43 0-44 .878906-1.433593 1.269531-1.7656248 3.382812-.789062 5.03125.976562 1.648438 2.984375 2.375 4.789062 1.730469 13.902344-.695313 27.835938-.550781 41.71875.4375 1.359375.0625 2.652344-.570313 3.441407-1.679688 23.078124-32.28125 62.480468-56.558593 76.757812-56.558593 18.679688 0 45.160156-6.960938 63.160156-13.921876 1.160156-.4375 2.472656-.179687 3.375.671876.902344.851562 1.238282 2.144531.867188 3.328124-4.640625 13.5625-25.519532 26.480469-42.082032 30.082032h-.480468c-1.4375.519531-35.71875 12.796875-48 46.917968-.75 2.078126.324218 4.367188 2.402344 5.121094 2.074218.75 4.367187-.324218 5.117187-2.398437 10.5625-29.203125 40.242187-40.960938 42.960937-42 6.617188-1.542969 13-3.9375 19-7.121094l-6.039062 7.960937c-.28125.34375-.5.734376-.640625 1.160157-8.378906-2.554688-17.460937.441406-22.679687 7.476562l-6.441407 9.441407c-.105469.152343-.199219.3125-.277343.480468-1.136719 2.503906-1.445313 5.308594-.882813 8-.96875-.078125-1.945313-.078125-2.917969 0-5.433594.734375-10.347656 3.613282-13.640625 8l-2.28125 3c-2.695312 3.558594-3.785156 8.082032-3 12.480469.230469 1.214844.605469 2.394531 1.121094 3.519531-4.625.902344-8.765625 3.460938-11.640625 7.199219-3.375 4.597656-4.625 10.421875-3.4375 16 .25 1.015625.558594 2.019531.917969 3-6.777344-.5625-13.378907 2.363281-17.519531 7.761719-3.101563 4.222656-4.421876 9.492187-3.679688 14.679687-.789062.195313-1.503906.628907-2.039062 1.238281l-17.882813 21.28125c-9.542969 11.875-8.808594 28.988282 1.722656 40l-32 37.28125c-1.445312 1.667969-1.269531 4.191407.398438 5.636719 1.679687 1.4375 4.203125 1.242188 5.640625-.4375l32.398437-37.480469c4.730469 2.90625 10.167969 4.457032 15.722657 4.480469 1.132812.078125 2.265624.078125 3.398437 0 8.011719-.855469 15.347656-4.890625 20.359375-11.199219l12-14.960937c1.4375-1.84375 1.105469-4.503906-.738281-5.941406-1.84375-1.433594-4.503907-1.105469-5.941407.742187l-8.558593 10.71875c-.179688-.28125-.394531-.535156-.640625-.761718l-18.558594-15.160157c-1.097656-.984375-2.652344-1.289062-4.039062-.785156-1.390626.503906-2.386719 1.730469-2.597657 3.195313-.207031 1.460937.40625 2.917968 1.59375 3.792968l18.761719 15c.222656.160156.464844.296875.71875.398438-8.261719 8.632812-21.863281 9.210937-30.828125 1.308594-8.964844-7.898438-10.097656-21.46875-2.570313-30.75l16.441407-19.597657c1.546875 2.847657 3.6875 5.328125 6.277343 7.277344l27.082032 20.441406c3.960937 3.089844 8.816406 4.8125 13.839844 4.921875 3.679687.015625 7.296874-.953125 10.480468-2.800781 5.710938-3.25 9.363282-9.195313 9.679688-15.761719.039062-.785156.039062-1.574218 0-2.359375 4.148437 3.167969 9.21875 4.894531 14.4375 4.921875 3.652344.050782 7.253906-.859375 10.441406-2.640625 5.671875-3.128906 9.320312-8.972656 9.640625-15.441406.097656-1.199219.097656-2.402344 0-3.597656 2.523437 1.109375 5.242187 1.707031 8 1.757812 11.0625-.007812 20.167969-8.707031 20.679687-19.757812 0-.523438 0-1.042969 0-1.5625.851563.214843 1.722657.335937 2.601563.359375 3.867187-.292969 7.570313-1.679688 10.679687-4 5.832032-3.675782 9.480469-9.988282 9.757813-16.878906.328125-6.644532-2.671875-13.015626-8-17l-9.039063-6.800782-8.960937-7.078125 25.160156-32c.664063-.835937.964844-1.902343.839844-2.960937-.054687-1.078125-.546875-2.089844-1.359375-2.800782l-14.800781-11.359374 56.441406-70.960938c15.945313-19.875 44.867187-23.324219 65.039063-7.757812l12.800781 9.917968c1.746093 1.359375 4.261719 1.046875 5.621093-.699218 1.355469-1.746094 1.042969-4.261719-.703124-5.621094l-12.796876-9.917969c-23.65625-18.214844-57.527343-14.179687-76.242187 9.078125l-56.640625 71.121094-14.320312-11c.949218-1.601563 1.738281-3.289063 2.363281-5.039063 1.476562-4.148437.398437-8.773437-2.761719-11.839843zm-62.558594 180.757812c-5.0625 2.640625-11.203125 2.0625-15.679687-1.480469l-27.082031-20.4375c-6.203126-4.152343-7.882813-12.539062-3.757813-18.761719 2.339844-3.042968 6-4.785156 9.839844-4.679687 3.332031-.015625 6.578125 1.066406 9.238281 3.082031l16.878906 12.71875 10.199219 7.71875c3.988281 2.859375 6.257813 7.539063 6.042969 12.441406-.160156 3.898438-2.304688 7.445313-5.679688 9.398438zm34.519532-16c-5.226563 2.546875-11.453126 1.863281-16-1.757812l-24.402344-18.441407-12.917969-9.757812-3.320313-2.480469c-3.171874-2.320312-5.375-5.722656-6.199218-9.5625-.71875-3.324219.007812-6.800781 2-9.558594 2.085937-2.691406 5.238281-4.339844 8.640625-4.519531 3.914062-.253906 7.785156.941406 10.878906 3.359375l29.039063 21.917969 11.640624 8.761719c4.183594 3 6.585938 7.894531 6.398438 13.039062-.15625 3.839844-2.332031 7.308594-5.71875 9.121094zm28.398437-20.238281c-4.476563 2.765625-10.1875 2.511719-14.398437-.640625l-9.960938-7.398438-40.679688-30.722656c-2.710937-2.03125-5.820312-3.476562-9.121093-4.238281-1.761719-1.257813-2.941407-3.175781-3.265625-5.316407-.324219-2.140624.234375-4.320312 1.546875-6.042968l2.238281-3c2.019531-2.710938 5.050781-4.484375 8.402344-4.921875 3.414062-.46875 6.871094.453125 9.597656 2.5625l47.242188 32 9.320312 7.039062c3.332031 2.523438 5.214844 6.523438 5.03125 10.699219-.183594 4.179688-2.410156 8-5.953125 10.21875zm15.082031-49.519531 9.117188 6.878906c3.222656 2.40625 5.023437 6.265625 4.800781 10.28125-.195313 4.265625-2.464844 8.164062-6.078125 10.4375-5.480469 3.480468-6.921875 3.640625-10.203125 1.160156-.5-.375-1.09375-.609375-1.71875-.679688-1.371094-2.265624-3.148437-4.257812-5.238281-5.878906l-9.480469-7.121094-47.28125-31.597656c-5.4375-3.679687-4.597656-7.28125-4.28125-8.242187l6.121094-9c4.078125-5.539063 11.851562-6.769531 17.441406-2.757813zm12.320313-47.160157-22.683594 28.800781-30.917969-24.160156 22.800782-28zm0 0"></path><path d="m253.359375 315.382812c-.664063.832032-.972656 1.894532-.851563 2.953126.117188 1.058593.65625 2.027343 1.492188 2.6875.714844.546874 1.582031.855468 2.480469.878906 1.230469.007812 2.394531-.554688 3.160156-1.519532l139.679687-175.238281c1.378907-1.734375 1.09375-4.261719-.640624-5.640625-1.734376-1.382812-4.257813-1.09375-5.640626.640625zm0 0"></path><path d="m414.480469 113.261719c-.949219 1.203125-1.128907 2.839843-.464844 4.21875.664063 1.375 2.054687 2.257812 3.585937 2.261719 1.207032.003906 2.355469-.539063 3.117188-1.480469l27.480469-34.476563c1.363281-1.726562 1.078125-4.226562-.640625-5.601562-1.722656-1.363282-4.226563-1.074219-5.597656.640625zm0 0"></path><path d="m461.480469 67.144531 15.441406-19.402343c1.296875-1.726563.988281-4.171876-.699219-5.523438s-4.140625-1.117188-5.542968.523438l-15.441407 19.402343c-.652343.84375-.9375 1.917969-.796875 2.976563.144532 1.0625.703125 2.019531 1.558594 2.664062.726562.554688 1.609375.859375 2.519531.878906 1.160157-.054687 2.242188-.609374 2.960938-1.519531zm0 0"></path><path d="m284.28125 336.023438c.726562.542968 1.609375.835937 2.519531.839843 1.210938.003907 2.355469-.539062 3.121094-1.480469l197.199219-247.4375c1.035156-1.101562 1.367187-2.6875.851562-4.109374-.515625-1.417969-1.785156-2.429688-3.285156-2.609376-1.5-.179687-2.972656.5-3.808594 1.757813l-197.199218 247.398437c-.671876.828126-.984376 1.886719-.871094 2.945313.113281 1.058594.640625 2.027344 1.472656 2.695313zm0 0"></path><path d="m431.71875 22.664062c-2.03125-.859374-4.375.089844-5.238281 2.121094l-16 37.839844c-.832031 2.019531.109375 4.335938 2.121093 5.199219.488282.21875 1.019532.328125 1.558594.320312 1.605469-.003906 3.054688-.964843 3.679688-2.441406l16-37.800781c.859375-2.03125-.089844-4.375-2.121094-5.238282zm0 0"></path><path d="m440 .34375c-2.078125-.75-4.367188.324219-5.121094 2.398438l-1.4375 4c-.75 2.078124.324219 4.371093 2.398438 5.121093.4375.160157.894531.238281 1.359375.242188 1.683593-.003907 3.1875-1.058594 3.761719-2.640625l1.4375-4c.75-2.078125-.324219-4.371094-2.398438-5.121094zm0 0"></path><path d="m407.601562 79.902344c-.984374-.410156-2.085937-.414063-3.070312-.007813s-1.765625 1.1875-2.171875 2.167969l-7.398437 17.5625c-.859376 2.03125.089843 4.375 2.117187 5.238281.492187.222657 1.023437.328125 1.5625.320313 1.605469 0 3.054687-.960938 3.679687-2.441406l7.441407-17.597657c.410156-.980469.410156-2.085937.007812-3.070312-.40625-.984375-1.1875-1.765625-2.167969-2.171875zm0 0"></path><path d="m377.238281 46.464844c-.40625-.984375-1.1875-1.765625-2.167969-2.167969-.984374-.40625-2.089843-.402344-3.070312.007813-2.039062.832031-3.023438 3.15625-2.199219 5.199218l13.597657 33.320313c.832031 2.039062 3.15625 3.023437 5.203124 2.199219.988282-.398438 1.777344-1.175782 2.191407-2.160157.414062-.984375.414062-2.09375.007812-3.078125zm0 0"></path><path d="m365 21.785156c-.847656-2.027344-3.167969-2.988281-5.199219-2.160156-2.042969.832031-3.023437 3.15625-2.199219 5.199219l4.796876 11.757812c.476562 1.410157 1.691406 2.441407 3.160156 2.679688 1.46875.234375 2.949218-.367188 3.839844-1.558594.886718-1.191406 1.042968-2.777344.402343-4.121094zm0 0"></path><path d="m315.121094 180.421875c.761718.941406 1.910156 1.484375 3.117187 1.480469.902344-.003906 1.777344-.3125 2.480469-.878906l24-19.28125c1.480469-1.4375 1.621094-3.769532.324219-5.375-1.296875-1.605469-3.601563-1.964844-5.324219-.824219l-24 19.242187c-.828125.664063-1.359375 1.636719-1.472656 2.695313-.109375 1.058593.203125 2.117187.875 2.941406zm0 0"></path><path d="m349.199219 152.902344c.746093.945312 1.878906 1.503906 3.082031 1.519531.917969-.003906 1.808594-.332031 2.519531-.917969l20.679688-16.640625c1.722656-1.390625 1.992187-3.917969.597656-5.640625-1.390625-1.722656-3.914063-1.992187-5.636719-.597656l-20.640625 16.679688c-1.703125 1.382812-1.972656 3.882812-.601562 5.597656zm0 0"></path><path d="m353.039062 119.945312h8c2.210938 0 4-1.792968 4-4 0-2.210937-1.789062-4-4-4h-8c-2.207031 0-4 1.789063-4 4 0 2.207032 1.792969 4 4 4zm0 0"></path><path d="m334.441406 111.625-29.960937-.519531c-2.210938 0-4 1.789062-4 4 0 2.207031 1.789062 4 4 4l30 .519531c2.207031 0 4-1.792969 4-4 0-1.070312-.425781-2.09375-1.1875-2.84375-.757813-.75-1.785157-1.167969-2.851563-1.15625zm0 0"></path><path d="m4 283.144531h37.121094c.464844-.015625.925781-.109375 1.359375-.28125 2.832031 4.292969 6.867187 7.660157 11.597656 9.679688.515625.234375 1.074219.359375 1.640625.359375 1.878906-.007813 3.5-1.324219 3.894531-3.160156.394531-1.835938-.542969-3.699219-2.253906-4.480469-8.679687-4-12.238281-11.238281-12.238281-25.199219 0-2.207031-1.792969-4-4-4-2.210938 0-4 1.792969-4 4-.109375 5.089844.511718 10.167969 1.839844 15.082031h-34.960938c-2.210938 0-4 1.789063-4 4 0 2.207031 1.789062 4 4 4zm0 0"></path></svg>
