<svg width="24" height="24" viewBox="0 0 24 24" fill="none" xmlns="http://www.w3.org/2000/svg">
<path fill-rule="evenodd" clip-rule="evenodd" d="M13.624 3.4068L12.0001 1.04688L10.3762 3.4068L8.00938 1.79287L7.34761 4.58007L4.55763 3.9301L4.9474 6.76815L2.11103 7.16993L3.4997 9.67553L1 11.0748L3.20002 12.9095L1.37459 15.1173L4.08884 16.0334L3.18422 18.7515L6.04612 18.6253L6.18448 21.4866L8.80752 20.3351L9.97018 22.9532L12.0001 20.9319L14.03 22.9532L15.1927 20.3351L17.8157 21.4866L17.9541 18.6253L20.816 18.7515L19.9114 16.0334L22.6256 15.1173L20.8002 12.9095L23.0002 11.0748L20.5005 9.67553L21.8892 7.16993L19.0528 6.76815L19.4426 3.9301L16.6526 4.58007L15.9908 1.79287L13.624 3.4068ZM17.0554 8.97444C17.4069 8.62297 17.4069 8.05312 17.0554 7.70165C16.7039 7.35017 16.1341 7.35017 15.7826 7.70165L10.343 13.1412L8.2176 11.0158C7.86613 10.6643 7.29628 10.6643 6.94481 11.0158C6.59334 11.3673 6.59334 11.9371 6.94481 12.2886L9.70662 15.0504C9.8754 15.2192 10.1043 15.314 10.343 15.314C10.5817 15.314 10.8106 15.2192 10.9794 15.0504L17.0554 8.97444Z" fill="black"/>
</svg>
