<svg width="14" height="12" viewBox="0 0 22 15" xmlns="http://www.w3.org/2000/svg" fill="#000">
    <path d="M10.725 12c1.25 0 2.313-.438 3.188-1.313.874-.874 1.312-1.937 1.312-3.187 0-1.25-.438-2.313-1.313-3.188S11.976 3 10.726 3c-1.25 0-2.313.438-3.188 1.313S6.225 6.25 6.225 7.5c0 1.25.438 2.313 1.313 3.188.874.874 1.937 1.312 3.187 1.312zm0-1.8c-.75 0-1.387-.262-1.912-.787A2.604 2.604 0 0 1 8.024 7.5c0-.75.262-1.388.787-1.912a2.604 2.604 0 0 1 1.913-.788c.75 0 1.388.263 1.912.788.525.524.788 1.162.788 1.912s-.263 1.387-.788 1.912a2.604 2.604 0 0 1-1.912.788zm0 4.8c-2.233 0-4.27-.6-6.112-1.8C2.77 12 1.317 10.417.25 8.45a1.908 1.908 0 0 1-.188-1.437C.105 6.854.167 6.7.25 6.55 1.317 4.583 2.77 3 4.612 1.8 6.454.6 8.492 0 10.726 0c2.233 0 4.27.6 6.112 1.8C18.68 3 20.133 4.583 21.2 6.55a1.908 1.908 0 0 1 .188 1.438 1.996 1.996 0 0 1-.188.462c-1.067 1.967-2.52 3.55-4.363 4.75-1.841 1.2-3.879 1.8-6.112 1.8zm0-2a9.545 9.545 0 0 0 5.188-1.488A9.773 9.773 0 0 0 19.524 7.5a9.773 9.773 0 0 0-3.612-4.013A9.545 9.545 0 0 0 10.724 2a9.545 9.545 0 0 0-5.188 1.487A9.773 9.773 0 0 0 1.925 7.5a9.773 9.773 0 0 0 3.612 4.012A9.545 9.545 0 0 0 10.726 13z" fill-rule="nonzero"/>
</svg>
